<svg xmlns="http://www.w3.org/2000/svg" width="255.809" height="133.007" viewBox="0 0 255.809 133.007">
  <g id="Group_521" data-name="Group 521" transform="translate(-64.246 -69.032)">
    <g id="Group_516" data-name="Group 516" transform="translate(64.66 115.45)">
      <path id="Path_1928" data-name="Path 1928" d="M66.311,364.655V300.738H93.859a19.429,19.429,0,0,1,8.642,1.935,22.458,22.458,0,0,1,6.8,5.041,23.562,23.562,0,0,1,4.456,7.112,21.337,21.337,0,0,1,1.62,8.057,23.441,23.441,0,0,1-5.807,15.349,20.355,20.355,0,0,1-6.662,4.951,19.91,19.91,0,0,1-8.6,1.845H83.866v19.625Zm17.555-34.93h9.272a4.11,4.11,0,0,0,3.016-1.485q1.394-1.485,1.4-5.356,0-3.961-1.62-5.4a4.917,4.917,0,0,0-3.241-1.44H83.866Z" transform="translate(-66.311 -300.738)" fill="#12203e"/>
      <path id="Path_1929" data-name="Path 1929" d="M346.268,364.655V300.738h29.348a19.429,19.429,0,0,1,8.642,1.935,22.459,22.459,0,0,1,6.8,5.041,23.561,23.561,0,0,1,4.456,7.112,21.333,21.333,0,0,1,1.62,8.057,22.746,22.746,0,0,1-2.431,10.4,21.189,21.189,0,0,1-6.752,7.877l13.5,23.5H381.648L370.395,345.03h-6.572v19.625Zm17.555-34.93H374.9a3.884,3.884,0,0,0,3.016-1.8,8.06,8.06,0,0,0,1.4-5.041,7.242,7.242,0,0,0-1.62-5.086,4.542,4.542,0,0,0-3.241-1.755H363.823Z" transform="translate(-290.184 -300.738)" fill="#12203e"/>
      <path id="Path_1930" data-name="Path 1930" d="M649.593,364.655V300.738h17.555v63.917Z" transform="translate(-532.743 -300.738)" fill="#12203e"/>
      <path id="Path_1931" data-name="Path 1931" d="M792.041,364.655V300.738h24.577a35.977,35.977,0,0,1,13.954,2.521,28.088,28.088,0,0,1,16.2,16.969,36.6,36.6,0,0,1,2.07,12.378,36.091,36.091,0,0,1-2.3,13.189,28.554,28.554,0,0,1-6.527,10.083,29.256,29.256,0,0,1-10.173,6.482,36.456,36.456,0,0,1-13.234,2.3Zm38.981-32.049a21.852,21.852,0,0,0-.99-6.752,15.111,15.111,0,0,0-2.836-5.222,12.8,12.8,0,0,0-4.546-3.376,14.538,14.538,0,0,0-6.032-1.215H809.6v33.309h7.022a14.3,14.3,0,0,0,6.122-1.26,12.783,12.783,0,0,0,4.546-3.511,15.475,15.475,0,0,0,2.791-5.311A22.474,22.474,0,0,0,831.022,332.607Z" transform="translate(-646.655 -300.738)" fill="#12203e"/>
      <path id="Path_1932" data-name="Path 1932" d="M1159.343,349.351v15.3h-45.552V300.738h44.742v15.3h-27.187v9h23.226v14.224h-23.226v10.083Z" transform="translate(-903.948 -300.738)" fill="#12203e"/>
    </g>
    <g id="Group_517" data-name="Group 517" transform="translate(69.883 69.032)">
      <path id="Path_1933" data-name="Path 1933" d="M92.384,93.583V69.865h15.433V71.4H94.088v9.42h11.659v1.47H94.088V93.583Z" transform="translate(-92.384 -69.698)" fill="#12203e"/>
      <path id="Path_1934" data-name="Path 1934" d="M191.432,93.583V69.865h1.7V93.583Z" transform="translate(-171.59 -69.698)" fill="#12203e"/>
      <path id="Path_1935" data-name="Path 1935" d="M241.89,89.209a10.408,10.408,0,0,1-7.984,3.875,9.764,9.764,0,0,1-4.46-1.036,11.346,11.346,0,0,1-3.524-2.739,13.031,13.031,0,0,1-2.305-3.875,12.19,12.19,0,0,1-.835-4.41,12.679,12.679,0,0,1,.818-4.51,12.531,12.531,0,0,1,2.272-3.842,10.928,10.928,0,0,1,3.457-2.656,9.786,9.786,0,0,1,4.376-.985,12.245,12.245,0,0,1,3.19.384,9.7,9.7,0,0,1,2.539,1.069,8.147,8.147,0,0,1,1.937,1.637,10.191,10.191,0,0,1,1.387,2.088l-1.4.835a7.628,7.628,0,0,0-3.19-3.391,9.453,9.453,0,0,0-4.493-1.052,8.014,8.014,0,0,0-3.808.9,9.4,9.4,0,0,0-2.906,2.372,10.6,10.6,0,0,0-1.837,3.34,11.871,11.871,0,0,0-.635,3.842,10.974,10.974,0,0,0,2.756,7.316,9.82,9.82,0,0,0,3.023,2.288,8.383,8.383,0,0,0,3.742.852,8.92,8.92,0,0,0,4.125-1,12.285,12.285,0,0,0,3.758-3.174V82.761h-5.378V81.392h6.848V92.917h-1.47Z" transform="translate(-196.659 -69.032)" fill="#12203e"/>
      <path id="Path_1936" data-name="Path 1936" d="M368.884,69.865V93.583h-1.7V82.225H352.215V93.583h-1.7V69.865h1.7V80.688H367.18V69.865Z" transform="translate(-298.8 -69.698)" fill="#12203e"/>
      <path id="Path_1937" data-name="Path 1937" d="M479.638,71.4h-8.686V93.583h-1.7V71.4h-8.685V69.865h19.074Z" transform="translate(-386.806 -69.698)" fill="#12203e"/>
      <path id="Path_1938" data-name="Path 1938" d="M574.118,93.583V69.865h1.7V93.583Z" transform="translate(-477.612 -69.698)" fill="#12203e"/>
      <path id="Path_1939" data-name="Path 1939" d="M615.341,73.072V93.583h-1.7V69.865h1.3l16.636,20.878V69.865h1.7V93.583h-1.57Z" transform="translate(-509.214 -69.698)" fill="#12203e"/>
      <path id="Path_1940" data-name="Path 1940" d="M753.471,89.209a10.408,10.408,0,0,1-7.984,3.875,9.765,9.765,0,0,1-4.46-1.036,11.346,11.346,0,0,1-3.524-2.739,13.03,13.03,0,0,1-2.305-3.875,12.191,12.191,0,0,1-.835-4.41,12.678,12.678,0,0,1,.818-4.51,12.531,12.531,0,0,1,2.272-3.842,10.926,10.926,0,0,1,3.457-2.656,9.784,9.784,0,0,1,4.376-.985,12.245,12.245,0,0,1,3.19.384,9.7,9.7,0,0,1,2.539,1.069,8.142,8.142,0,0,1,1.937,1.637,10.19,10.19,0,0,1,1.387,2.088l-1.4.835a7.628,7.628,0,0,0-3.19-3.391,9.453,9.453,0,0,0-4.493-1.052,8.014,8.014,0,0,0-3.808.9,9.4,9.4,0,0,0-2.906,2.372,10.6,10.6,0,0,0-1.837,3.34,11.872,11.872,0,0,0-.635,3.842,10.974,10.974,0,0,0,2.756,7.316,9.821,9.821,0,0,0,3.023,2.288,8.383,8.383,0,0,0,3.742.852,8.92,8.92,0,0,0,4.125-1,12.287,12.287,0,0,0,3.758-3.174V82.761h-5.378V81.392h6.848V92.917h-1.47Z" transform="translate(-605.755 -69.032)" fill="#12203e"/>
      <path id="Path_1941" data-name="Path 1941" d="M903.631,70.032h1.67l3.541,8.618,3.541-8.618h1.67l-4.176,9.988,4.977,11.558,9.086-21.713h1.871L915.657,93.583h-1.57L908.875,81.39l-5.245,12.193h-1.57L891.939,69.865h1.837l9.12,21.713,4.911-11.558Z" transform="translate(-731.763 -69.698)" fill="#12203e"/>
      <path id="Path_1942" data-name="Path 1942" d="M1078.865,93.583V69.865h1.7V93.583Z" transform="translate(-881.242 -69.698)" fill="#12203e"/>
      <path id="Path_1943" data-name="Path 1943" d="M1124.953,71.4h-8.685V93.583h-1.7V71.4h-8.685V69.865h19.074Z" transform="translate(-902.844 -69.698)" fill="#12203e"/>
      <path id="Path_1944" data-name="Path 1944" d="M1237.806,69.865V93.583h-1.7V82.225h-14.965V93.583h-1.7V69.865h1.7V80.688H1236.1V69.865Z" transform="translate(-993.65 -69.698)" fill="#12203e"/>
    </g>
    <g id="Group_520" data-name="Group 520" transform="translate(64.246 182.181)">
      <g id="Group_518" data-name="Group 518" transform="translate(0 11.246)">
        <rect id="Rectangle_629" data-name="Rectangle 629" width="42.566" height="8.612" fill="#dd1526"/>
        <rect id="Rectangle_630" data-name="Rectangle 630" width="42.566" height="8.612" transform="translate(42.566)" fill="#f07b17"/>
        <rect id="Rectangle_631" data-name="Rectangle 631" width="42.566" height="8.612" transform="translate(85.132)" fill="#f9de00"/>
        <rect id="Rectangle_632" data-name="Rectangle 632" width="42.566" height="8.612" transform="translate(127.698)" fill="#499d25"/>
        <rect id="Rectangle_633" data-name="Rectangle 633" width="42.566" height="8.612" transform="translate(170.264)" fill="#0b2966"/>
        <rect id="Rectangle_634" data-name="Rectangle 634" width="42.566" height="8.612" transform="translate(212.83)" fill="#53186e"/>
      </g>
      <g id="Group_519" data-name="Group 519" transform="translate(21.063)">
        <rect id="Rectangle_635" data-name="Rectangle 635" width="42.566" height="8.612" fill="#ee9dba"/>
        <rect id="Rectangle_636" data-name="Rectangle 636" width="42.566" height="8.612" transform="translate(42.566)" fill="#67c1da"/>
        <rect id="Rectangle_637" data-name="Rectangle 637" width="42.566" height="8.612" transform="translate(85.132)" fill="#fbf4f0"/>
        <rect id="Rectangle_638" data-name="Rectangle 638" width="42.566" height="8.612" transform="translate(127.698)" fill="#4d2a0f"/>
        <rect id="Rectangle_639" data-name="Rectangle 639" width="42.566" height="8.612" transform="translate(170.264)" fill="#060607"/>
      </g>
    </g>
    <rect id="Rectangle_640" data-name="Rectangle 640" width="254.57" height="4.351" transform="translate(64.659 95.71)" fill="#12203e"/>
    <rect id="Rectangle_641" data-name="Rectangle 641" width="254.57" height="4.351" transform="translate(64.659 101.995)" fill="#da0031"/>
    <rect id="Rectangle_642" data-name="Rectangle 642" width="254.57" height="4.351" transform="translate(64.659 108.279)" fill="#39b8e9"/>
  </g>
</svg>
